<?xml version="1.0" encoding="utf-8" ?>
<svg xmlns="http://www.w3.org/2000/svg" xmlns:xlink="http://www.w3.org/1999/xlink" width="48" height="48" viewBox="0 0 48 48">
	<defs>
		<clipPath id="clipPath9382180829">
			<path transform="matrix(1 0 0 1 0 0)" d="M0 0L48 0L48 48L0 48L0 0Z" fill-rule="nonzero"/>
		</clipPath>
	</defs>
	<g clip-path="url(#clipPath9382180829)">
		<path transform="matrix(1 0 0 1 15.7399 1)" d="M6.3873 8.52343C4.2242 10.0183 1.77263 11.7127 0.45903 14.5159C-1.82256 19.4066 5.12773 24.7412 5.4248 24.9659C5.49383 25.0181 5.57648 25.0442 5.65886 25.0442C5.74636 25.0442 5.83395 25.0148 5.90509 24.9562C6.04306 24.8428 6.08219 24.6502 5.99935 24.4934C5.97421 24.4457 3.4794 19.684 3.57211 16.268C3.60493 15.0782 5.29944 13.7284 7.09334 12.2995C8.73637 10.9906 10.5988 9.50722 11.6885 7.77189C14.0808 3.95208 11.4219 0.196071 11.3948 0.158517C11.2892 0.01279 11.0942 -0.0399484 10.9275 0.0318369C10.761 0.104071 10.6688 0.280974 10.7068 0.4559C10.7122 0.480787 11.2293 2.96461 9.79049 5.52363C9.19783 6.5811 7.89547 7.48115 6.3873 8.52343Z" fill-rule="nonzero" fill="rgb(0, 255, 0)"/>
		<path transform="matrix(1 0 0 1 21.875 10.5296)" d="M9.36548 0.678256C9.51808 0.565323 9.56288 0.35931 9.47062 0.194897C9.37819 0.0304821 9.17703 -0.0420218 8.99837 0.0246428C8.63091 0.161924 0 3.43107 0 7.38106C0 10.104 1.18368 11.5424 2.04799 12.5928C2.38702 13.0048 2.67969 13.3606 2.77615 13.6644C3.0477 14.5397 2.40439 16.1219 2.13384 16.6577C2.05585 16.8117 2.09407 16.9984 2.22673 17.1109C2.29842 17.1717 2.38793 17.2026 2.47753 17.2026C2.55379 17.2026 2.63041 17.1803 2.6966 17.135C2.845 17.0337 6.32344 14.6171 5.6996 11.7055C5.46718 10.5988 4.91374 9.79022 4.4254 9.07668C3.66889 7.97115 3.12249 7.17262 3.95142 5.69774C4.92261 3.97741 9.32095 0.71096 9.36548 0.678256Z" fill-rule="nonzero" fill="rgb(0, 255, 0)"/>
		<path transform="matrix(1 0 0 1 8.69824 25.8494)" d="M0.0756732 1.9453C-0.0722635 2.38059 -0.0024094 2.81238 0.277464 3.1944C1.21309 4.47081 4.52723 5.17357 9.60975 5.17357C10.2991 5.17357 11.0261 5.16027 11.7708 5.13404C19.8969 4.84824 22.9108 2.36065 23.0352 2.2549C23.1707 2.13963 23.2069 1.94772 23.1227 1.79247C23.0384 1.63731 22.8567 1.55933 22.6831 1.60632C19.8212 2.37412 14.4772 2.64671 10.7706 2.64671C6.62294 2.64671 4.51067 2.3531 3.99353 2.13631C4.25887 1.77828 5.8955 1.13895 7.92356 0.746962C8.11739 0.709588 8.25061 0.533673 8.23141 0.340509C8.21221 0.147345 8.04708 0 7.8495 0C6.6607 2.74182e-06 0.698874 0.0937976 0.0756732 1.9453Z" fill-rule="nonzero" fill="rgb(0, 255, 0)"/>
		<path transform="matrix(1 0 0 1 31.7644 25.2325)" d="M4.20082 0C2.52478 0 0.935415 0.825484 0.868487 0.860434C0.713509 0.942012 0.634879 1.11667 0.677395 1.2845C0.720095 1.45206 0.873426 1.56984 1.04925 1.57002C1.08482 1.57002 4.62442 1.5985 4.94499 3.58576C5.22897 5.30016 1.59592 8.07795 0.172049 9.0037C0.0182596 9.1037 -0.0414441 9.29686 0.0299649 9.46397C0.090768 9.60619 0.231663 9.69514 0.383625 9.69514C0.410141 9.69514 0.437023 9.69244 0.46372 9.68687C0.801655 9.61581 8.72973 7.89907 7.89148 3.3633C7.3801 0.583538 5.60211 0 4.20082 0Z" fill-rule="nonzero" fill="rgb(0, 255, 0)"/>
		<path transform="matrix(1 0 0 1 11.9739 31.1775)" d="M18.5544 2.5036C18.582 2.35833 18.5204 2.21053 18.3974 2.12563L16.4964 0.817234C16.4037 0.753446 16.2866 0.733409 16.1778 0.76171C16.1579 0.766651 14.17 1.2802 11.2839 1.5951C10.1384 1.72133 8.85544 1.788 7.57338 1.788C4.68797 1.788 2.80136 1.45486 2.52661 1.21048C2.49022 1.14184 2.50174 1.11066 2.50823 1.09332C2.55815 0.956941 2.82568 0.794864 2.99812 0.730714C3.18858 0.661444 3.29125 0.458218 3.23201 0.267388C3.17294 0.0762883 2.97261 -0.0361043 2.77494 0.0105231C0.868032 0.462706 -0.0643914 1.09503 0.00345158 1.88988C0.123958 3.29917 3.44587 4.0225 6.2542 4.21369C6.65806 4.24082 7.09483 4.25457 7.55208 4.25457C12.2226 4.25457 18.2092 2.81482 18.269 2.80017C18.4152 2.76514 18.5267 2.64915 18.5544 2.5036Z" fill-rule="nonzero" fill="rgb(0, 255, 0)"/>
		<path transform="matrix(1 0 0 1 13.3092 36.0129)" d="M2.88754 0.692734C3.03154 0.600735 3.09536 0.425807 3.04425 0.264717C2.99332 0.103627 2.83999 -0.00220991 2.66774 3.56436e-05C2.41218 0.00668455 0.167162 0.106232 0.00998922 1.51076C-0.0375558 1.93051 0.08478 2.31406 0.373798 2.65052C1.17986 3.58921 3.35576 4.14714 7.02465 4.35612C7.45868 4.38172 7.89957 4.39457 8.33524 4.39457C12.9996 4.39457 16.1411 2.9595 16.2726 2.8984C16.4002 2.8391 16.4843 2.71593 16.4918 2.57757C16.4993 2.43921 16.429 2.30794 16.3087 2.23562L13.9063 0.794524C13.8229 0.744571 13.7232 0.72804 13.6281 0.747175C13.6129 0.75032 12.0875 1.06118 9.78554 1.36827C9.34995 1.42649 8.80447 1.45604 8.16445 1.45604C5.86493 1.45604 3.30721 1.08687 2.81668 0.845105C2.80955 0.800008 2.8186 0.742687 2.88754 0.692734Z" fill-rule="nonzero" fill="rgb(0, 255, 0)"/>
		<path transform="matrix(1 0 0 1 5 39.2459)" d="M14.4706 5.49458C25.1548 5.48568 30.8891 3.61863 31.9938 2.44375C32.3848 2.02813 32.4271 1.63461 32.3939 1.37757C32.3118 0.745067 31.7254 0.35784 31.659 0.315794C31.4986 0.214451 31.2834 0.240954 31.1583 0.382728C31.0335 0.524501 31.0306 0.731681 31.1558 0.873365C31.2232 0.958537 31.2621 1.10112 31.0651 1.29491C30.6235 1.7002 26.1694 2.93043 18.7532 3.30005C17.7373 3.35189 16.6718 3.3783 15.5864 3.37848C8.94633 3.37848 4.08681 2.48471 3.44889 1.96398C3.69475 1.61682 5.41367 1.06222 7.24167 0.748481C7.44767 0.713171 7.58683 0.522434 7.55492 0.319386C7.52301 0.116429 7.33256 -0.023278 7.12437 0.00322438C7.0728 0.010142 6.8978 0.0203854 6.69518 0.032603C3.67902 0.213549 0.193542 0.616857 0.0116843 2.14393C-0.0435403 2.60923 0.0971731 3.03168 0.430077 3.39932C1.24464 4.29866 3.58594 5.49439 14.4706 5.49458Z" fill-rule="nonzero" fill="rgb(0, 255, 0)"/>
		<path transform="matrix(1 0 0 1 11.6667 41.9858)" d="M27.4256 0.0349116C27.2746 -0.0337298 27.0961 0.000951409 26.9834 0.120443C26.9678 0.137063 25.3614 1.78759 20.5316 2.75682C18.6826 3.12087 15.2118 3.3055 10.2157 3.3055C5.21027 3.3055 0.447299 3.11197 0.399846 3.11C0.200891 3.10047 0.030735 3.24261 0.00367062 3.43505C-0.0234844 3.62732 0.102691 3.80862 0.294791 3.85354C0.344348 3.86504 5.3359 5.01415 12.1608 5.01415C15.4341 5.01415 18.6194 4.75297 21.6284 4.23745C27.2387 3.271 27.6315 0.53741 27.6455 0.421511C27.6651 0.259521 27.5764 0.103553 27.4256 0.0349116Z" fill-rule="nonzero" fill="rgb(0, 255, 0)"/>
	</g>
</svg>
